<svg xmlns="http://www.w3.org/2000/svg" version="1.1" xmlns:xlink="http://www.w3.org/1999/xlink" xmlns:svgjs="http://svgjs.dev/svgjs" width="1000" height="467" viewBox="0 0 1000 467"><g transform="matrix(1,0,0,1,-0.6053258312518324,-0.016338533632790586)"><svg viewBox="0 0 396 185" data-background-color="#ffffff" preserveAspectRatio="xMidYMid meet" height="467" width="1000" xmlns="http://www.w3.org/2000/svg" xmlns:xlink="http://www.w3.org/1999/xlink"><g id="tight-bounds" transform="matrix(1,0,0,1,0.23996626379300778,0.0064724383770169425)"><svg viewBox="0 0 395.52 184.98690133333332" height="184.98690133333332" width="395.52"><g><svg viewBox="0 0 395.52 184.98690133333332" height="184.98690133333332" width="395.52"><g><svg viewBox="0 0 395.52 184.98690133333332" height="184.98690133333332" width="395.52"><g id="textblocktransform"><svg viewBox="0 0 395.52 184.98690133333332" height="184.98690133333332" width="395.52" id="textblock"><g><svg viewBox="0 0 395.52 184.98690133333332" height="184.98690133333332" width="395.52"><path d="M394.594 39.676C392.735 20.475 387.435 15.137 387.435 15.137 371.165-4.641 350.86-0.378 332.619 2.463 300.414 2.579 268.339 6.803 236.208 9.069 168.767 9.414 100.749 3.731 33.643 17.748 27.339 22.049-6.54 18.593 1.121 42.134 3.129 51.927 10.456 62.795 10.232 71.781 11.236 73.356 12.631 69.746 13.226 72.012 15.309 78.118 18.711 75.237 21.501 78.847 17.614 88.487 20.403 96.513 23.062 104.923 18.377 107.112 12.371 106.075 9.675 113.333 9.396 118.595 7.89 117.596 6.235 117.366 5.026 117.212 2.59 117.788 2.999 119.439 4.394 125.085-1.594 128.349 2.162 133.879-0.422 139.87 3.948 145.054 3.353 151.545 3.278 152.85 3.687 153.964 4.338 154.271 7.22 155.922 3.018 159.148 3.464 162.643 33.029 186.53 65.104 170.016 95.394 181 103.259 173.319 97.346 183.726 100.489 182.113 102.943 180.232 104.728 188.028 107.499 183.611 107.927 182.344 107.276 179.348 108.8 179.924 109.6 180.232 110.307 180.155 110.418 178.388 110.586 175.739 109.117 177.39 108.726 176.007 112.947 169.018 111.906 185.647 115.866 184.955 115.68 182.92 114.528 180.001 116.889 180.385 119.232 177.467 119.306 175.047 121.389 181.614 121.463 183.035 121.835 184.034 122.43 184.725 128.938 177.582 135.409 187.259 142.233 184.034 146.417 180.501 150.433 185.954 154.672 184.61 156.16 183.534 157.666 181.614 159.098 184.84 176.632 185.531 195.319 182.651 211.943 184.955 256.364 180.654 303.835 186.722 350.674 181.038 361.719 178.849 373.192 175.739 383.958 173.242 383.958 173.242 392.679 166.407 392.679 135.684S394.538 108.802 394.817 84.339C395.096 59.876 396.398 58.878 394.538 39.676Z" opacity="1" fill="#000000" data-fill-palette-color="tertiary"></path><g transform="matrix(1,0,0,1,55.76832,26.230666666666668)"><svg width="283.98335999999995" viewBox="0 -50 93.75 43.75" height="132.525568" data-palette-color="url(#95be1763-7300-44fb-9ff8-e3190e20d1b6)"></svg></g></svg></g></svg></g></svg></g><g></g></svg></g><defs><linearGradient x1="0" x2="1" y1="0.5" y2="0.5" id="95be1763-7300-44fb-9ff8-e3190e20d1b6"><stop stop-color="#ffa62e" offset="0"></stop><stop stop-color="#f71b3d" offset="1"></stop></linearGradient></defs><rect width="395.52032470703125" height="184.98704528808594" fill="url(#95be1763-7300-44fb-9ff8-e3190e20d1b6)" mask="url(&quot;#cd1c2fb3-0c0b-4edf-bacd-f799099682fb&quot;)" data-fill-palette-color="quaternary"></rect><mask id="cd1c2fb3-0c0b-4edf-bacd-f799099682fb"><g id="SvgjsG1053"><svg viewBox="0 0 395.52 184.98690133333332" height="184.98690133333332" width="395.52"><g><svg viewBox="0 0 395.52 184.98690133333332" height="184.98690133333332" width="395.52"><g><svg viewBox="0 0 395.52 184.98690133333332" height="184.98690133333332" width="395.52"><g id="SvgjsG1052"><svg viewBox="0 0 395.52 184.98690133333332" height="184.98690133333332" width="395.52" id="SvgjsSvg1051"><g><svg viewBox="0 0 395.52 184.98690133333332" height="184.98690133333332" width="395.52"><path d="M394.594 39.676C392.735 20.475 387.435 15.137 387.435 15.137 371.165-4.641 350.86-0.378 332.619 2.463 300.414 2.579 268.339 6.803 236.208 9.069 168.767 9.414 100.749 3.731 33.643 17.748 27.339 22.049-6.54 18.593 1.121 42.134 3.129 51.927 10.456 62.795 10.232 71.781 11.236 73.356 12.631 69.746 13.226 72.012 15.309 78.118 18.711 75.237 21.501 78.847 17.614 88.487 20.403 96.513 23.062 104.923 18.377 107.112 12.371 106.075 9.675 113.333 9.396 118.595 7.89 117.596 6.235 117.366 5.026 117.212 2.59 117.788 2.999 119.439 4.394 125.085-1.594 128.349 2.162 133.879-0.422 139.87 3.948 145.054 3.353 151.545 3.278 152.85 3.687 153.964 4.338 154.271 7.22 155.922 3.018 159.148 3.464 162.643 33.029 186.53 65.104 170.016 95.394 181 103.259 173.319 97.346 183.726 100.489 182.113 102.943 180.232 104.728 188.028 107.499 183.611 107.927 182.344 107.276 179.348 108.8 179.924 109.6 180.232 110.307 180.155 110.418 178.388 110.586 175.739 109.117 177.39 108.726 176.007 112.947 169.018 111.906 185.647 115.866 184.955 115.68 182.92 114.528 180.001 116.889 180.385 119.232 177.467 119.306 175.047 121.389 181.614 121.463 183.035 121.835 184.034 122.43 184.725 128.938 177.582 135.409 187.259 142.233 184.034 146.417 180.501 150.433 185.954 154.672 184.61 156.16 183.534 157.666 181.614 159.098 184.84 176.632 185.531 195.319 182.651 211.943 184.955 256.364 180.654 303.835 186.722 350.674 181.038 361.719 178.849 373.192 175.739 383.958 173.242 383.958 173.242 392.679 166.407 392.679 135.684S394.538 108.802 394.817 84.339C395.096 59.876 396.398 58.878 394.538 39.676Z" opacity="1" fill="black"></path><g transform="matrix(1,0,0,1,55.76832,26.230666666666668)"><svg width="283.98335999999995" viewBox="0 -50 93.75 43.75" height="132.525568" data-palette-color="url(#95be1763-7300-44fb-9ff8-e3190e20d1b6)"><path d="M43.75-6.25L12.5-6.25 12.5-12.5 6.25-12.5 6.25-18.75 0-18.75 0-37.5 6.25-37.5 6.25-43.75 12.5-43.75 12.5-50 43.75-50 43.75-43.75 18.75-43.75 18.75-37.5 12.5-37.5 12.5-18.75 18.75-18.75 18.75-12.5 31.25-12.5 31.25-25 25-25 25-31.25 43.75-31.25 43.75-6.25ZM93.75-6.25L62.5-6.25 62.5-12.5 56.25-12.5 56.25-18.75 50-18.75 50-37.5 56.25-37.5 56.25-43.75 62.5-43.75 62.5-50 93.75-50 93.75-43.75 68.75-43.75 68.75-37.5 62.5-37.5 62.5-18.75 68.75-18.75 68.75-12.5 81.25-12.5 81.25-25 75-25 75-31.25 93.75-31.25 93.75-6.25Z" opacity="1" transform="matrix(1,0,0,1,0,0)" fill="white" class="undefined-text-0" id="SvgjsPath1050"></path></svg></g></svg></g></svg></g></svg></g><g></g></svg></g><defs><mask></mask></defs></svg></g></mask></svg><rect width="395.52" height="184.98690133333332" fill="none" stroke="none" visibility="hidden"></rect></g></svg></g></svg>